<?xml version="1.0" encoding="UTF-8" standalone="no"?><!-- Generator: Gravit.io --><svg xmlns="http://www.w3.org/2000/svg" xmlns:xlink="http://www.w3.org/1999/xlink" style="isolation:isolate" viewBox="0 0 500 500" width="500pt" height="500pt"><defs><clipPath id="_clipPath_4EvNRtYv66JzxKep7tZdlgysLjWF5OS4"><rect width="500" height="500"/></clipPath></defs><g clip-path="url(#_clipPath_4EvNRtYv66JzxKep7tZdlgysLjWF5OS4)"><path d=" M 0 111.111 L 388.889 111.111 L 388.889 500 L 0 500 L 0 111.111 Z " fill="rgb(255,170,43)"/><path d=" M 388.889 111.111 L 500 0 L 500 373.264 L 388.889 500 L 388.889 111.111 Z " fill="rgb(255,128,0)"/><path d=" M 0 111.111 L 138.889 0 L 500 0 L 388.889 111.111 L 0 111.111 Z " fill="rgb(255,194,102)"/><path d=" M 169.103 210.56 L 169.103 210.56 L 169.103 210.56 Q 154.454 210.56 154.454 235.756 L 154.454 235.756 L 154.454 353.383 L 154.454 353.383 Q 154.454 401.43 116.808 415.785 L 116.808 415.785 L 116.808 415.785 Q 103.917 420.619 87.657 420.619 L 87.657 420.619 L 87.657 420.619 Q 71.398 420.619 59.972 417.103 L 59.972 417.103 L 59.972 417.103 Q 48.546 413.588 40.636 407.728 L 40.636 407.728 L 40.636 407.728 Q 24.669 395.717 24.669 378.578 L 24.669 378.578 L 24.669 378.578 Q 24.669 365.687 30.675 358.143 L 30.675 358.143 L 30.675 358.143 Q 36.681 350.6 47.228 350.6 L 47.228 350.6 L 47.228 350.6 Q 56.017 350.6 58.946 354.701 L 58.946 354.701 L 58.946 354.701 Q 57.189 361.732 57.189 368.324 L 57.189 368.324 L 57.189 368.324 Q 57.189 398.353 88.243 398.353 L 88.243 398.353 L 88.243 398.353 Q 103.478 398.353 111.681 389.491 L 111.681 389.491 L 111.681 389.491 Q 119.884 380.629 119.884 364.369 L 119.884 364.369 L 119.884 227.699 L 119.884 227.699 Q 119.591 219.935 116.954 217.445 L 116.954 217.445 L 116.954 217.445 Q 112.853 213.783 107.286 212.684 L 107.286 212.684 L 107.286 212.684 Q 101.72 211.586 97.984 210.707 L 97.984 210.707 L 97.984 210.707 Q 94.249 209.828 91.612 208.51 L 91.612 208.51 L 91.612 208.51 Q 86.632 205.873 86.632 200.16 L 86.632 200.16 L 86.632 200.16 Q 86.632 194.74 88.976 192.103 L 88.976 192.103 L 88.976 192.103 Q 92.345 193.275 103.478 193.275 L 103.478 193.275 L 166.905 193.275 L 166.905 193.275 Q 183.605 193.275 183.605 204.555 L 183.605 204.555 L 183.605 204.555 Q 183.605 209.389 181.261 212.025 L 181.261 212.025 L 181.261 212.025 Q 175.987 210.56 169.103 210.56 Z  M 331.554 255.092 L 331.554 255.092 L 331.554 255.092 Q 331.554 221.547 307.677 213.051 L 307.677 213.051 L 307.677 213.051 Q 299.474 210.121 288.487 210.121 L 288.487 210.121 L 288.487 210.121 Q 277.501 210.121 269.591 212.611 L 269.591 212.611 L 269.591 212.611 Q 261.681 215.101 256.407 219.35 L 256.407 219.35 L 256.407 219.35 Q 245.714 227.992 245.714 242.201 L 245.714 242.201 L 245.714 242.201 Q 245.714 263.734 277.355 278.969 L 277.355 278.969 L 295.665 287.611 L 295.665 287.611 Q 308.995 293.764 321.373 300.136 L 321.373 300.136 L 321.373 300.136 Q 333.751 306.508 343.273 314.711 L 343.273 314.711 L 343.273 314.711 Q 364.22 332.582 364.22 358.949 L 364.22 358.949 L 364.22 358.949 Q 364.22 387.221 339.61 404.506 L 339.61 404.506 L 339.61 404.506 Q 316.612 420.619 281.896 420.619 L 281.896 420.619 L 281.896 420.619 Q 254.357 420.619 233.263 411.976 L 233.263 411.976 L 233.263 411.976 Q 217.735 405.824 211.144 394.545 L 211.144 394.545 L 211.144 394.545 Q 207.775 388.832 207.775 380.629 L 207.775 380.629 L 207.775 380.629 Q 207.775 364.223 215.978 350.014 L 215.978 350.014 L 215.978 350.014 Q 218.761 346.644 223.595 346.644 L 223.595 346.644 L 223.595 346.644 Q 232.97 346.644 234.435 352.211 L 234.435 352.211 L 234.435 352.211 Q 236.339 377.553 250.035 389.125 L 250.035 389.125 L 250.035 389.125 Q 263.732 400.697 288.341 400.697 L 288.341 400.697 L 288.341 400.697 Q 316.612 400.697 326.28 382.24 L 326.28 382.24 L 326.28 382.24 Q 329.65 375.795 329.65 367.079 L 329.65 367.079 L 329.65 367.079 Q 329.65 358.363 324.962 351.478 L 324.962 351.478 L 324.962 351.478 Q 320.275 344.594 312.511 338.734 L 312.511 338.734 L 312.511 338.734 Q 300.646 329.945 281.09 321.742 L 281.09 321.742 L 281.09 321.742 Q 261.534 313.539 250.621 307.387 L 250.621 307.387 L 250.621 307.387 Q 239.708 301.234 231.359 293.031 L 231.359 293.031 L 231.359 293.031 Q 213.194 275.16 213.194 248.939 L 213.194 248.939 L 213.194 248.939 Q 213.194 222.133 236.192 206.019 L 236.192 206.019 L 236.192 206.019 Q 258.312 190.492 293.321 190.492 L 293.321 190.492 L 293.321 190.492 Q 337.706 190.492 351.329 208.803 L 351.329 208.803 L 351.329 208.803 Q 356.31 215.394 356.31 226.088 L 356.31 226.088 L 356.31 226.088 Q 356.31 236.781 354.332 244.691 L 354.332 244.691 L 354.332 244.691 Q 352.355 252.601 350.45 254.945 L 350.45 254.945 L 350.45 254.945 Q 347.228 258.9 339.391 258.9 L 339.391 258.9 L 339.391 258.9 Q 331.554 258.9 331.554 255.092 Z " fill="rgb(143,5,189)"/></g></svg>